<svg width="28" height="28" viewBox="0 0 28 28" fill="none" xmlns="http://www.w3.org/2000/svg">
  <path d="M14.0815 4.45361C13.7069 4.45361 13.3322 4.60625 13.0408 4.88376L9.5719 8.3527L6.10296 4.88376C5.53406 4.31486 4.60438 4.31486 4.0216 4.88376L1.59335 7.31202C1.02444 7.88092 1.02444 8.8106 1.59335 9.39338L4.0216 11.8216C4.59051 12.3905 5.52018 12.3905 6.10296 11.8216L9.5719 8.3527L13.0408 11.8216C13.3322 12.113 13.7069 12.2518 14.0815 12.2518H24.3357C25.7094 12.2518 26.8333 11.1417 26.8333 9.75415V4.45361H14.0815Z" fill="#AB7BFE"/>
  <path d="M4.0216 16.1781L1.59335 18.6064C1.02444 19.1753 1.02444 20.105 1.59335 20.6878L4.0216 23.116C4.59051 23.6849 5.52018 23.6849 6.10296 23.116L9.5719 19.6471L6.10296 16.1781C5.52018 15.6092 4.59051 15.6092 4.0216 16.1781Z" fill="#4752E6"/>
  <path d="M14.0812 15.7485C13.7066 15.7485 13.332 15.9012 13.0406 16.1787L9.57162 19.6476L13.0406 23.1166C13.332 23.4079 13.7066 23.5467 14.0812 23.5467H24.3354C25.7091 23.5467 26.8331 22.4366 26.8331 21.0491V15.7485H14.0812Z" fill="#4752E6"/>
</svg>
